<svg width="20" height="21" viewBox="0 0 20 21" fill="none" xmlns="http://www.w3.org/2000/svg">
<path d="M7.80463 9.83925C8.585 11.2115 9.726 12.3525 11.0982 13.1328L11.8353 12.1009C12.0804 11.7579 12.543 11.6519 12.913 11.854C14.0853 12.4944 15.3809 12.8836 16.7324 12.9906C17.1658 13.0249 17.5 13.3866 17.5 13.8213V17.5403C17.5 17.9676 17.1768 18.3256 16.7518 18.3693C16.3102 18.4147 15.8647 18.4375 15.4167 18.4375C8.28299 18.4375 2.5 12.6545 2.5 5.52083C2.5 5.07272 2.52285 4.62726 2.56824 4.18563C2.61192 3.76062 2.96995 3.4375 3.39721 3.4375H7.11618C7.55092 3.4375 7.91261 3.7717 7.94692 4.20507C8.05389 5.55657 8.44308 6.8522 9.0835 8.02453C9.28558 8.3945 9.17958 8.85712 8.83658 9.10214L7.80463 9.83925ZM5.70354 9.29183L7.28683 8.16091C6.83789 7.19178 6.53023 6.16402 6.37273 5.10417H4.17422C4.16919 5.24277 4.16667 5.38167 4.16667 5.52083C4.16667 11.734 9.2035 16.7708 15.4167 16.7708C15.5558 16.7708 15.6947 16.7683 15.8333 16.7632V14.5647C14.7735 14.4072 13.7457 14.0996 12.7766 13.6507L11.6457 15.234C11.1882 15.0562 10.7463 14.8471 10.3228 14.6092L10.2744 14.5817C8.64142 13.6531 7.28445 12.2961 6.35583 10.6631L6.32828 10.6147C6.09041 10.1912 5.88128 9.74933 5.70354 9.29183Z" fill="#8F8F8F"/>
</svg>
