<svg width="10" height="16" viewBox="0 0 10 16" fill="none" xmlns="http://www.w3.org/2000/svg">
<path d="M5.33331 6.43734H9.08331L8.66665 8.104H5.33331V15.604H3.66665V8.104H0.333313V6.43734H3.66665V4.87715C3.66665 3.39128 3.8214 2.85247 4.1119 2.30926C4.4024 1.76605 4.82873 1.33974 5.3719 1.04923C5.91515 0.758712 6.4539 0.604004 7.93981 0.604004C8.37481 0.604004 8.75598 0.645671 9.08331 0.729004V2.27067H7.93981C6.83673 2.27067 6.50081 2.33554 6.1579 2.51891C5.90515 2.6541 5.71673 2.8425 5.58156 3.09526C5.39815 3.43814 5.33331 3.77406 5.33331 4.87715V6.43734Z" fill="#8F8F8F"/>
</svg>
