<svg width="21" height="21" viewBox="0 0 21 21" fill="none" xmlns="http://www.w3.org/2000/svg">
<path d="M10.5008 8.43734C9.11967 8.43734 8.00081 9.55659 8.00081 10.9373C8.00081 12.3184 9.12008 13.4373 10.5008 13.4373C11.8819 13.4373 13.0008 12.3181 13.0008 10.9373C13.0008 9.55625 11.8816 8.43734 10.5008 8.43734ZM10.5008 6.77067C12.8012 6.77067 14.6675 8.63492 14.6675 10.9373C14.6675 13.2378 12.8032 15.104 10.5008 15.104C8.20042 15.104 6.33415 13.2398 6.33415 10.9373C6.33415 8.63695 8.1984 6.77067 10.5008 6.77067ZM15.9175 6.56163C15.9175 7.13672 15.4502 7.60331 14.8758 7.60331C14.3007 7.60331 13.8342 7.136 13.8342 6.56163C13.8342 5.98725 14.3014 5.52067 14.8758 5.52067C15.4494 5.51995 15.9175 5.98725 15.9175 6.56163ZM10.5008 4.27067C8.43875 4.27067 8.10265 4.27613 7.14356 4.31884C6.49012 4.34951 6.05211 4.4374 5.64513 4.5954C5.28346 4.73566 5.02257 4.90315 4.7446 5.18113C4.46556 5.46017 4.29836 5.72036 4.15866 6.0822C4.0003 6.4901 3.91244 6.92743 3.88231 7.57996C3.83919 8.5 3.83415 8.82155 3.83415 10.9373C3.83415 12.9994 3.83961 13.3355 3.88231 14.2945C3.913 14.9477 4.001 15.3863 4.15861 15.7923C4.29925 16.1545 4.46708 16.416 4.74371 16.6927C5.02386 16.9724 5.28482 17.1402 5.64322 17.2785C6.05516 17.4378 6.4929 17.5258 7.14343 17.5558C8.06348 17.5989 8.38502 17.604 10.5008 17.604C12.5629 17.604 12.899 17.5985 13.858 17.5558C14.5097 17.5253 14.9487 17.437 15.3558 17.2795C15.717 17.1393 15.9793 16.9708 16.2562 16.6944C16.5363 16.4138 16.7037 16.1535 16.8422 15.7943C17.0011 15.3838 17.0892 14.9455 17.1193 14.2948C17.1624 13.3747 17.1675 13.0531 17.1675 10.9373C17.1675 8.87527 17.162 8.53918 17.1193 7.58015C17.0887 6.92822 17.0004 6.48858 16.8427 6.08165C16.7028 5.72099 16.5347 5.4593 16.257 5.18113C15.9775 4.90163 15.718 4.73478 15.3559 4.59519C14.9483 4.43695 14.5103 4.34897 13.8582 4.31885C12.9382 4.27571 12.6166 4.27067 10.5008 4.27067ZM10.5008 2.604C12.7647 2.604 13.0473 2.61234 13.9362 2.654C14.823 2.69498 15.4279 2.83525 15.9592 3.0415C16.5084 3.25331 16.9723 3.53942 17.4355 4.00261C17.898 4.46581 18.1842 4.93109 18.3967 5.479C18.6022 6.00956 18.7425 6.61511 18.7842 7.50192C18.8237 8.39081 18.8342 8.67345 18.8342 10.9373C18.8342 13.2013 18.8258 13.4838 18.7842 14.3728C18.7432 15.2596 18.6022 15.8644 18.3967 16.3957C18.1848 16.945 17.898 17.4088 17.4355 17.8721C16.9723 18.3346 16.5063 18.6207 15.9592 18.8332C15.4279 19.0388 14.823 19.179 13.9362 19.2207C13.0473 19.2603 12.7647 19.2707 10.5008 19.2707C8.23692 19.2707 7.95428 19.2623 7.0654 19.2207C6.17859 19.1797 5.57442 19.0388 5.04248 18.8332C4.49386 18.6213 4.02928 18.3346 3.56609 17.8721C3.1029 17.4088 2.81748 16.9429 2.60498 16.3957C2.39873 15.8644 2.25915 15.2596 2.21748 14.3728C2.1779 13.4838 2.16748 13.2013 2.16748 10.9373C2.16748 8.67345 2.17581 8.39081 2.21748 7.50192C2.25845 6.61442 2.39873 6.01025 2.60498 5.479C2.81678 4.9304 3.1029 4.46581 3.56609 4.00261C4.02928 3.53942 4.49456 3.254 5.04248 3.0415C5.57373 2.83525 6.1779 2.69567 7.0654 2.654C7.95428 2.61442 8.23692 2.604 10.5008 2.604Z" fill="#8F8F8F"/>
</svg>
