<svg width="21" height="21" viewBox="0 0 21 21" fill="none" xmlns="http://www.w3.org/2000/svg">
<path d="M10.5008 8.89571C11.2651 8.11506 12.2601 7.604 13.4175 7.604C15.9487 7.604 18.0008 9.656 18.0008 12.1873V18.4373H16.3342V12.1873C16.3342 10.5765 15.0283 9.27067 13.4175 9.27067C11.8067 9.27067 10.5008 10.5765 10.5008 12.1873V18.4373H8.83416V8.02067H10.5008V8.89571ZM4.66748 6.354C3.97712 6.354 3.41748 5.79436 3.41748 5.104C3.41748 4.41365 3.97712 3.854 4.66748 3.854C5.35783 3.854 5.91748 4.41365 5.91748 5.104C5.91748 5.79436 5.35783 6.354 4.66748 6.354ZM3.83415 8.02067H5.50081V18.4373H3.83415V8.02067Z" fill="#8F8F8F"/>
</svg>
