<svg width="20" height="21" viewBox="0 0 20 21" fill="none" xmlns="http://www.w3.org/2000/svg">
<g clip-path="url(#clip0_1252_2531)">
<path d="M10 20.7106L4.6967 15.4073C1.76777 12.4783 1.76777 7.72964 4.6967 4.8007C7.62563 1.87177 12.3743 1.87177 15.3033 4.8007C18.2323 7.72964 18.2323 12.4783 15.3033 15.4073L10 20.7106ZM14.1248 14.2288C16.4028 11.9508 16.4028 8.25727 14.1248 5.97921C11.8468 3.70115 8.15327 3.70115 5.87521 5.97921C3.59715 8.25727 3.59715 11.9508 5.87521 14.2288L10 18.3536L14.1248 14.2288ZM10 11.7707C9.0795 11.7707 8.33333 11.0245 8.33333 10.104C8.33333 9.18353 9.0795 8.43734 10 8.43734C10.9205 8.43734 11.6667 9.18353 11.6667 10.104C11.6667 11.0245 10.9205 11.7707 10 11.7707Z" fill="#8F8F8F"/>
</g>
<defs>
<clipPath id="clip0_1252_2531">
<rect width="20" height="20" fill="white" transform="translate(0 0.9375)"/>
</clipPath>
</defs>
</svg>
